<?xml version="1.0" encoding="UTF-8" standalone="no"?>
<!-- Created with Inkscape (http://www.inkscape.org/) -->

<svg
   xmlns:svg="http://www.w3.org/2000/svg"
   xmlns="http://www.w3.org/2000/svg"
   version="1.1"
   width="150.5612"
   height="61.17905"
   id="svg3862">
  <defs
     id="defs3864" />
  <g
     transform="translate(-379.00509,-301.77253)"
     id="layer1">
    <path
       d="m 398.29259,339.58403 -6.2025,0 0,-16.08625 6.2025,0 c 4.61875,0 8.38125,3.60875 8.38125,8.0475 0,4.43125 -3.7625,8.03875 -8.38125,8.03875 m 20.66125,-13.54 c -2.51375,-8.69375 -10.8125,-15.1075 -20.66125,-15.1075 l -19.2875,0 0,41.21 19.2875,0 c 4.895,0 9.3925,-1.59875 13.01,-4.25625 -0.42,-1.57875 -0.66625,-3.22 -0.66625,-4.92375 l 0,-0.97875 c 0,-6.51625 3.27625,-12.28875 8.3175,-15.94375"
       id="path2896"
       style="fill:#5ea8e0;fill-opacity:1;fill-rule:nonzero;stroke:none" />
    <path
       d="m 419.75259,331.54528 c 0,-1.90875 -0.2925,-3.74875 -0.79875,-5.50125 -5.03875,3.655 -8.3175,9.4275 -8.3175,15.9425 l 0,0.97875 c 0,1.70375 0.24625,3.3475 0.66375,4.9275 5.13,-3.76875 8.4525,-9.68625 8.4525,-16.3475"
       id="path2898"
       style="fill:#2d71c1;fill-opacity:1;fill-rule:nonzero;stroke:none" />
    <path
       d="m 439.19634,342.96778 c 0,4.09375 -3.47375,7.42375 -7.73875,7.42375 -4.26625,0 -7.7375,-3.33 -7.7375,-7.42375 l 0,-0.98 c 0,-4.09125 3.47125,-7.42375 7.7375,-7.42375 4.265,0 7.73875,3.3325 7.73875,7.42375 l 0,0.98 z m -0.65375,-19.76 c -0.1275,-0.045 -0.25125,-0.0925 -0.385,-0.135 -0.0363,-0.0113 -0.0763,-0.0225 -0.10875,-0.0362 -0.0937,-0.03 -0.18625,-0.0625 -0.27875,-0.09 -1.995,-0.61125 -4.11125,-0.94625 -6.3125,-0.94625 -4.69375,0 -9.01625,1.52 -12.5025,4.04375 0.5075,1.7525 0.7975,3.595 0.7975,5.50125 0,6.66125 -3.3225,12.57875 -8.44875,16.34625 2.2925,8.64125 10.44625,15.06 20.15375,15.06 4.5525,0 8.75375,-1.42375 12.18375,-3.81375 1.9625,1.7025 4.73125,2.8025 8.63875,3.365 l 0,-19.12875 0,-0.40625 0,-0.55125 0,-0.42875 c 0,-0.255 -0.0325,-0.5 -0.0412,-0.75 0,-0.0288 -0.002,-0.0562 -0.005,-0.0813 l 0,-0.0325 c 0,-0.0412 -0.009,-0.0813 -0.01,-0.11875 -7.865,-2.435 -13.5925,-9.47125 -13.68125,-17.7975"
       id="path2900"
       style="fill:#a6d71c;fill-opacity:1;fill-rule:nonzero;stroke:none" />
    <path
       d="m 477.67509,315.14653 c 0.005,-10e-4 0.009,-0.007 0.0138,-0.009 0.006,-0.006 0.0112,-0.01 0.02,-0.015 0.0863,-0.0613 0.17375,-0.1225 0.255,-0.18625 l 0,-13.16375 -13.08,0 0,21.24125 c 0,3.5125 -2.97625,6.3625 -6.63125,6.3625 -3.65875,0 -6.62875,-2.85 -6.62875,-6.3625 l 0,-21.24125 -13.085,0 0,21.24125 0,0.0225 0,0.0375 c 0,0.045 0.002,0.0888 0.002,0.1325 7.69125,2.68375 13.265,9.59375 13.68375,17.7975 0.1325,0.04 0.2575,0.08 0.38875,0.11875 0.0362,0.0125 0.0763,0.02 0.11625,0.0337 0.0913,0.0275 0.18,0.0562 0.2775,0.08 1.67125,0.4425 3.4275,0.7025 5.245,0.7025 4.50125,0 8.64875,-1.475 11.97,-3.9275 0.1325,-0.095 0.2575,-0.19875 0.39,-0.3 l 0,-8.8725 c 0,-5.5725 2.77375,-10.53 7.0625,-13.6925"
       id="path2902"
       style="fill:#fab812;fill-opacity:1;fill-rule:nonzero;stroke:none" />
    <path
       d="m 511.57134,311.55903 c -4.35875,0 -8.3625,1.5025 -11.48125,3.98625 -3.12,-2.48375 -7.11875,-3.98625 -11.4775,-3.98625 -3.8275,0 -7.36625,1.1625 -10.285,3.1175 -0.1225,0.0863 -0.24,0.175 -0.365,0.26 l 0,8.075 c 0,5.82125 -2.765,11.02125 -7.08375,14.49125 -0.002,0.004 -0.005,0.004 -0.0113,0.006 -0.0825,0.0675 -0.16875,0.135 -0.25625,0.2025 l 0,14.4375 13.0425,0 0,-23.31 c 0,-2.62375 2.22375,-4.75125 4.95875,-4.75125 2.73125,0 4.9575,2.1275 4.9575,4.75125 l 0,23.31 13.0425,0 0,-23.31 c 0,-2.62375 2.22125,-4.75125 4.95875,-4.75125 2.73125,0 4.9575,2.1275 4.9575,4.75125 l 0,23.31 13.0375,0 0,-23.31 c 0,-9.525 -8.07,-17.28 -17.995,-17.28"
       id="path2904"
       style="fill:#f46855;fill-opacity:1;fill-rule:nonzero;stroke:none" />
    <path
       d="m 470.88009,337.50278 c 4.3175,-3.47 7.085,-8.67 7.085,-14.49 l 0,-8.07375 c -0.0825,0.0625 -0.1725,0.12 -0.255,0.1825 -0.0112,0.005 -0.0162,0.01 -0.0225,0.0175 -0.005,0 -0.009,0.007 -0.0125,0.01 -4.2875,3.16 -7.06375,8.11875 -7.06375,13.6925 l 0,8.87 c 0.0863,-0.0675 0.1725,-0.1325 0.255,-0.2025 0.007,-0.002 0.01,-0.002 0.0138,-0.006"
       id="path2906"
       style="fill:#ea3a1e;fill-opacity:1;fill-rule:nonzero;stroke:none" />
    <path
       d="m 438.54134,323.20778 c 0.09,8.32625 5.8175,15.3625 13.68125,17.7975 -0.4175,-8.20375 -5.98875,-15.115 -13.68125,-17.7975"
       id="path2908"
       style="fill:#609f20;fill-opacity:1;fill-rule:nonzero;stroke:none" />
  </g>
</svg>
