<?xml version="1.0" encoding="UTF-8" standalone="no"?>
<svg width="512px" height="438px" viewBox="0 0 512 438" version="1.1" xmlns="http://www.w3.org/2000/svg" xmlns:xlink="http://www.w3.org/1999/xlink" xmlns:sketch="http://www.bohemiancoding.com/sketch/ns">
    <!-- Generator: Sketch 3.0.4 (8053) - http://www.bohemiancoding.com/sketch -->
    <title>logoTitleBig</title>
    <desc>Created with Sketch.</desc>
    <defs>
        <linearGradient x1="91.1151961%" y1="-17.549272%" x2="15.5158548%" y2="88.5142933%" id="linearGradient-1">
            <stop stop-color="#FD3259" offset="0%"></stop>
            <stop stop-color="#FD3848" offset="29.0964116%"></stop>
            <stop stop-color="#E01410" offset="100%"></stop>
        </linearGradient>
    </defs>
    <g id="Page-1" stroke="none" stroke-width="1" fill="none" fill-rule="evenodd" sketch:type="MSPage">
        <g id="logoTitleBig" sketch:type="MSArtboardGroup" fill="url(#linearGradient-1)">
            <path d="M480.955211,38.3094782 C490.917719,48.2327618 505.608398,58.3108454 494.876887,81.159882 C476.990049,112.165695 464.266017,125.637998 440.750549,198.686893 C422.200414,256.311372 403.483115,301.69994 390.855901,327.471044 C334.544895,432.341302 234.995072,434.458618 184.101398,431.221263 C89.3405013,425.193502 -19.1890953,319.85317 35.9004931,182.636698 C72.8673975,90.5599985 165.352283,42.2071026 231.130837,16.6722171 C263.378179,4.15396986 326.655762,-1.25488095 370.375821,25.8674298 C331.448065,35.871678 254.332628,84.2384271 206.982289,162.583841 C199.684437,174.658796 186.714584,192.609828 184.101402,213.027329 C186.133301,223.341743 196.843639,212.760984 199.305076,206.523061 C209.983654,187.999845 225.625688,153.827007 270.340909,114.041673 C381.407293,7.40928819 454.939853,24.0141309 480.955211,38.3094782 Z M126.863612,335.00461 L66.7737589,335.00461 L66.7737589,235 L63,235 L63,338.633224 L126.863612,338.633224 L126.863612,335.00461 Z M145.732406,249.804746 L145.732406,235 L141.958647,235 L141.958647,249.804746 L145.732406,249.804746 Z M145.732406,338.633224 L145.732406,264.028914 L141.958647,264.028914 L141.958647,338.633224 L145.732406,338.633224 Z M230.787125,313.08778 L227.013366,313.08778 C225.85221,327.747382 214.240644,336.89149 200.016476,336.89149 C180.567103,336.89149 170.406983,320.635297 170.406983,302.92766 C170.406983,285.510311 178.389935,265.770649 201.758211,265.770649 C214.385789,265.770649 224.110475,272.882733 226.432788,286.816612 L230.206547,286.816612 C228.319668,270.850709 215.837234,262.28718 201.613066,262.28718 C177.809356,262.28718 166.633224,281.301118 166.633224,302.92766 C166.633224,323.2479 178.535079,340.229815 200.016476,340.229815 C216.998391,340.229815 229.04539,329.92455 230.787125,313.08778 Z M255.461702,310.620322 L274.330497,294.944708 L308.584616,338.633224 L313.519531,338.633224 L276.943099,292.477251 L310.906929,264.028914 L305.826869,264.028914 L255.461702,306.12084 L255.461702,235 L251.833088,235 L251.833088,338.633224 L255.461702,338.633224 L255.461702,310.620322 Z M375.06083,264.028914 L348.789662,333.843454 L319.760748,264.028914 L315.841844,264.028914 C324.840808,285.655456 333.984916,307.136852 342.983879,328.908538 C344.290181,331.81143 346.031915,335.585188 346.902783,338.48808 C343.999891,345.890453 340.951855,354.744272 337.903819,357.792308 C335.000928,360.695199 330.501446,360.695199 324.115085,360.695199 L324.115085,364.178669 C327.017977,364.178669 329.920868,364.178669 332.53347,363.88838 C340.951855,362.436934 342.838735,358.082597 348.354229,343.713284 L378.979733,264.028914 L375.06083,264.028914 Z" id="tongue-6" sketch:type="MSShapeGroup"></path>
        </g>
    </g>
</svg>